<?xml version="1.0" encoding="utf-8"?>
<!-- Generator: Adobe Illustrator 19.0.0, SVG Export Plug-In . SVG Version: 6.00 Build 0)  -->
<svg version="1.1" id="Layer_1" xmlns="http://www.w3.org/2000/svg" xmlns:xlink="http://www.w3.org/1999/xlink" x="0px" y="0px"
	 viewBox="0 0 350 80" style="enable-background:new 0 0 350 80;" xml:space="preserve">
<style type="text/css">
	.st0{fill:#FFFFFF;}
	.st1{fill:#DC2927;}
	.st2{font-family:'Prototype';}
	.st3{font-size:31.6548px;}
	.st4{font-size:18.4653px;}
</style>
<polygon id="XMLID_7_" class="st0" points="5,38.2 5,47.2 45.2,65.1 45.2,54.1 "/>
<polygon id="XMLID_6_" class="st1" points="45.2,19.9 45.2,31.5 16.8,42 5.4,37.5 "/>
<polygon id="XMLID_5_" class="st1" points="89,63.7 89.2,54.7 129.8,37.7 129.6,48.7 "/>
<polygon id="XMLID_4_" class="st0" points="89.3,19.8 89.3,31.4 117.6,42 129,37.5 "/>
<polygon id="XMLID_3_" class="st1" points="75,9.6 82.6,22.3 73.7,27.4 66.8,69.7 57.5,74.4 51.8,65.8 67.2,25.4 62.4,16.9 "/>
<text id="XMLID_2_" transform="matrix(1 0 0 1 137.5112 39.2237)" class="st0 st2 st3">Matthew Lowe</text>
<text id="XMLID_1_" transform="matrix(1 0 0 1 156.3061 64.4781)" class="st1 st2 st4">// Software Developer</text>
</svg>
